<svg width="128" height="133" viewBox="0 0 128 133" fill="none" xmlns="http://www.w3.org/2000/svg">
<g clip-path="url(#clip0_12_259)">
<rect width="128" height="133" fill="white"/>
<path d="M-0.355178 82.72C-0.865759 80.4652 0.915732 78.3353 3.22737 78.4368L70.3733 81.384C71.9999 81.4554 73.3576 82.6393 73.6487 84.2402L80.9094 124.179C81.3163 126.417 79.5095 128.451 77.2373 128.313L11.6356 124.309C10.0882 124.215 8.79186 123.113 8.44976 121.603L-0.355178 82.72Z" fill="#D9D9D9" stroke="black"/>
<path d="M105.601 119.64L105.606 119.638L109.664 118.066C111.136 117.496 112.483 119.117 111.655 120.461L112.08 120.722L111.655 120.461C111.453 120.789 111.143 121.036 110.779 121.16L79.7648 131.719C79.3427 131.863 78.8974 131.925 78.4528 131.902L12.2163 128.462C11.2517 128.412 10.495 127.621 10.4871 126.655C10.4784 125.59 11.3781 124.737 12.4418 124.804L79.5525 129.016C80.1881 129.056 80.8255 128.96 81.4225 128.736L105.601 119.64Z" fill="#D9D9D9" stroke="black"/>
<path d="M108.55 26.2897C110.424 31.2656 110.799 35.1206 106.676 37.3471C101.955 39.8972 99.9702 36.7943 95.2034 33.477C90.4366 30.1598 90.4366 22.9725 95.2034 20.4762C99.181 19.1024 105.316 21.598 108.55 26.2897Z" fill="#121212"/>
<path d="M56.7084 27.3954C56.3125 31.2496 49.2133 35.6885 47.9641 36.7942C44.841 39.5586 38.6329 33.7583 39.0276 29.8883C39.4222 26.0182 41.948 22.1515 46.7148 19.6552C51.087 18.5495 57.333 21.3139 56.7084 27.3954Z" fill="#121212"/>
<path d="M101.804 39.5586V39.6577L101.842 39.7494C104.782 46.8719 105.34 52.6058 104.343 57.205C103.347 61.7979 100.788 65.3131 97.3886 67.9838C90.5662 73.3442 80.3937 75.2718 72.9387 75.5481C65.5422 75.5457 55.5078 72.6725 48.6584 67.4271C45.2379 64.8076 42.6456 61.6229 41.5432 57.9449C40.445 54.281 40.8062 50.0651 43.4056 45.3278L43.4673 45.2155V45.0873C43.4673 44.5068 43.6867 43.6977 44.1451 42.6997C44.5987 41.7121 45.2672 40.5804 46.1189 39.3672C47.822 36.9414 50.235 34.2221 53.0582 31.7211C55.8818 29.2198 59.1014 26.9494 62.4138 25.4087C65.7291 23.8666 69.1059 23.0696 72.2606 23.4685L72.3164 23.4756L72.3723 23.4701C80.6653 22.6545 88.0456 25.381 93.3563 28.9958C96.0115 30.8031 98.1376 32.8247 99.5946 34.7198C101.067 36.6347 101.804 38.3521 101.804 39.5586Z" fill="#D9D9D9" stroke="black"/>
<path d="M76.071 56.2553C76.071 57.2324 73.5542 60.0148 70.4496 60.0148C67.345 60.0148 64.8282 57.2324 64.8282 56.2553C64.8282 55.2782 67.345 54.4861 70.4496 54.4861C73.5542 54.4861 76.071 55.2782 76.071 56.2553Z" fill="#090808"/>
<path d="M41.7182 71.0722L42.9674 67.2021L44.2166 63.8849L49.8379 68.8607L56.0839 72.1779L56.0839 75.4952L54.8347 78.2595L53.5855 79.9181L36.7214 79.3653L39.2198 76.048L40.469 72.7308L41.7182 71.0722Z" fill="black"/>
<path d="M57.333 77.7067L57.333 75.4952L56.7961 72.7308L61.0806 74.3894L65.4527 75.4952L69.8249 76.0481L74.1971 76.0481L80.4431 75.4952L87.3136 73.8366L86.0644 76.0481L84.2784 77.7067L83.0291 81.5768L83.0291 92.0813L81.6922 96.5043L80.443 98.1629L77.9446 101.48L75.5339 91.5284L74.8217 86.5526L74.1971 84.3411L73.6601 82.6825L72.411 81.0239L69.8249 80.471L56.0838 79.9182L56.7961 79.3653L57.333 77.7067Z" fill="black"/>
<path d="M86.6891 77.7066L87.9383 75.4951L89.0149 74.4261L89.812 73.2837L92.935 72.1779L96.0579 69.9664L98.5564 68.3078L100.43 67.2021L101.679 65.5435L103.553 63.332L104.178 61.6734L104.802 58.909L105.427 55.5918L105.427 50.616L107.301 53.9332L109.799 58.3562L110.424 60.0148L111.048 61.6734L111.673 63.332L112.298 64.9906L112.922 67.2021L113.547 69.4136L114.171 71.6251L114.171 72.7308L113.547 73.2837L113.547 74.9423L113.547 77.7066L112.922 79.3652L112.298 82.1296L111.048 84.8939L110.424 87.6583L109.799 89.8698L109.175 91.5284L108.55 93.7399L106.676 96.5042L104.802 99.2686L102.929 102.033L93.5596 110.326L85.4399 118.066L80.4431 118.619L77.9447 103.692L83.5661 97.0571L84.8153 93.7399L84.8153 89.3169L85.4399 82.1296L86.0645 79.9181L86.6891 77.7066Z" fill="black"/>
<path d="M41.7182 71.0722L42.9674 67.2021L44.2166 63.8849L49.8379 68.8607L56.0839 72.1779L56.0839 75.4952L54.8347 78.2595L53.5855 79.9181L36.7214 79.3653L39.2198 76.048L40.469 72.7308L41.7182 71.0722Z" fill="black"/>
<path d="M107.044 98.1628L108.293 97.61L111.416 96.5042L113.29 95.9514H117.037L118.911 96.5042L119.536 97.0571L120.785 97.61L122.034 98.1628L123.283 99.2686L123.908 100.927L124.532 102.586L125.157 104.244V107.009L124.532 110.326L123.908 111.985L122.659 113.643L121.409 115.302L120.16 116.408L118.286 118.619L115.788 120.278L112.04 121.936L107.668 122.489L105.795 118.619L100.173 118.066L88.9304 117.513L92.678 113.09L97.0502 108.667L101.422 105.35L104.545 102.586L105.795 100.374L107.044 98.1628Z" fill="black"/>
<path d="M114.171 73.2837L113.547 72.178L114.171 71.6251L116.67 76.6009L118.543 81.0239L121.042 86.5526L122.291 90.9756L122.916 93.187L123.54 96.5043L124.165 101.48L122.291 98.7157L122.291 94.8456L120.417 88.7641L119.168 85.4468L114.171 73.2837Z" fill="black"/>
<path d="M107.301 98.1628L107.925 96.5042L109.799 94.8456L112.298 94.2927L114.171 93.7399H117.919L119.168 94.2927L120.417 94.8456L121.042 95.3985H121.666L122.291 94.8456V95.9513V97.0571H121.666L120.417 96.5042L119.793 95.9513L119.168 95.3985L114.796 94.8456L111.673 95.3985L109.799 96.5042L109.175 97.61L107.301 98.1628Z" fill="black"/>
<g clip-path="url(#clip1_12_259)">
<path d="M70.8337 40.6502C70.8368 41.0228 70.8504 41.4178 70.8645 41.8276C70.903 42.9403 70.9451 44.1616 70.7909 45.3368C70.5717 47.0086 69.958 48.5355 68.4365 49.4834C66.8647 50.4625 65.8516 50.813 64.7119 50.9363C64.1301 50.9992 63.501 51.0044 62.7213 50.9924C62.4932 50.9889 62.2519 50.9839 61.9962 50.9786C61.3859 50.966 60.6932 50.9517 59.8986 50.9517C59.1071 50.9517 58.4129 50.9659 57.7987 50.9785C57.538 50.9838 57.2917 50.9889 57.0585 50.9924C56.2683 51.0044 55.6247 50.9992 55.0281 50.9362C53.8591 50.8126 52.8182 50.4612 51.2486 49.4834C49.7282 48.5362 49.1417 47.0103 48.9503 45.3383C48.8215 44.2129 48.8726 43.0473 48.9197 41.9741C48.9399 41.5122 48.9594 41.0674 48.9635 40.6502H59.8986H70.8337Z" fill="#AAA9A9" stroke="black"/>
<path d="M93.1509 40.6502C93.154 41.0228 93.1676 41.4178 93.1817 41.8276C93.2202 42.9403 93.2623 44.1616 93.1081 45.3368C92.8889 47.0086 92.2752 48.5355 90.7537 49.4834C89.1819 50.4625 88.1688 50.813 87.0291 50.9363C86.4473 50.9992 85.8182 51.0044 85.0385 50.9924C84.8104 50.9889 84.5691 50.9839 84.3134 50.9786C83.7031 50.966 83.0104 50.9517 82.2159 50.9517C81.4242 50.9517 80.7301 50.9659 80.1159 50.9785C79.8552 50.9838 79.6089 50.9889 79.3756 50.9924C78.5855 51.0044 77.9419 50.9992 77.3453 50.9362C76.1763 50.8126 75.1355 50.4612 73.5658 49.4834C72.0455 48.5362 71.4589 47.0103 71.2675 45.3383C71.1388 44.2129 71.1898 43.0473 71.2369 41.9741C71.2571 41.5122 71.2766 41.0674 71.2807 40.6502H82.2159H93.1509Z" fill="#FFFAFD" stroke="black"/>
<path d="M70.8337 40.6502C70.8368 41.0228 70.8504 41.4178 70.8645 41.8276C70.903 42.9403 70.9451 44.1616 70.7909 45.3368C70.5717 47.0086 69.958 48.5355 68.4365 49.4834C66.8647 50.4625 65.8516 50.813 64.7119 50.9363C64.1301 50.9992 63.501 51.0044 62.7213 50.9924C62.4932 50.9889 62.2519 50.9839 61.9962 50.9786C61.3859 50.966 60.6932 50.9517 59.8986 50.9517C59.107 50.9517 58.4129 50.9659 57.7986 50.9785C57.538 50.9838 57.2917 50.9889 57.0585 50.9924C56.2683 51.0044 55.6247 50.9992 55.0281 50.9362C53.8591 50.8126 52.8182 50.4612 51.2486 49.4834C49.7282 48.5362 49.1417 47.0103 48.9503 45.3383C48.8215 44.2129 48.8726 43.0473 48.9197 41.9741C48.9399 41.5122 48.9594 41.0674 48.9635 40.6502H59.8986H70.8337Z" fill="#AAA9A9" stroke="black"/>
<path d="M93.1509 40.6502C93.154 41.0228 93.1676 41.4178 93.1817 41.8276C93.2202 42.9403 93.2623 44.1616 93.1081 45.3368C92.8889 47.0086 92.2752 48.5355 90.7537 49.4834C89.1819 50.4625 88.1688 50.813 87.0291 50.9363C86.4473 50.9992 85.8182 51.0044 85.0385 50.9924C84.8104 50.9889 84.5691 50.9839 84.3134 50.9786C83.7031 50.966 83.0104 50.9517 82.2159 50.9517C81.4242 50.9517 80.7301 50.9659 80.1158 50.9785C79.8552 50.9838 79.6089 50.9889 79.3756 50.9924C78.5855 51.0044 77.9419 50.9992 77.3453 50.9362C76.1763 50.8126 75.1355 50.4612 73.5658 49.4834C72.0455 48.5362 71.4589 47.0103 71.2675 45.3383C71.1388 44.2129 71.1898 43.0473 71.2369 41.9741C71.2571 41.5122 71.2766 41.0674 71.2807 40.6502H82.2159H93.1509Z" fill="#AAA9A9" stroke="black"/>
</g>
<path d="M102.163 40.1115H91.2018C91.1242 40.1115 91.0613 40.2352 91.0613 40.3879V40.9408C91.0613 41.0935 91.1242 41.2172 91.2018 41.2172H102.163C102.241 41.2172 102.304 41.0935 102.304 40.9408V40.3879C102.304 40.2352 102.241 40.1115 102.163 40.1115Z" fill="#1E1E1E"/>
<rect x="44.8411" y="40.1115" width="3.74758" height="1.10574" fill="#090909"/>
<path d="M80.2324 126.087L80.2656 126.038L80.2864 125.983L80.911 124.324L80.9604 124.193L80.9345 124.055L80.3099 120.738L80.3057 120.716L80.2997 120.695L79.8547 119.119H84.1907H88.5628H97.3072H105.76L105.954 119.464L102.127 120.916L97.7597 122.573L88.396 125.888L82.15 128.099L79.3047 129.107L78.9007 128.749L78.6051 128.488L80.2324 126.087Z" fill="#D9D9D9" stroke="black"/>
<path d="M61.5 65L66.5 67L72 67.5L77 67L82 65" stroke="black"/>
</g>
<defs>
<clipPath id="clip0_12_259">
<rect width="128" height="133" fill="white"/>
</clipPath>
<clipPath id="clip1_12_259">
<rect width="44.9709" height="12.1631" fill="white" transform="translate(48.5886 39.0057)"/>
</clipPath>
</defs>
</svg>
