<svg width="222" height="202" viewBox="0 0 222 202" fill="none" xmlns="http://www.w3.org/2000/svg">
<path d="M112.242 2.51411L149.683 57.8654C150.304 58.7849 151.244 59.442 152.321 59.7105L219.086 76.358C220.17 76.6283 220.589 77.9462 219.86 78.7925L176.301 129.351C175.536 130.239 175.147 131.39 175.218 132.56L179.172 197.919C179.237 199 178.17 199.792 177.154 199.416L112.561 175.518C111.554 175.146 110.446 175.146 109.439 175.518L44.8462 199.416C43.8303 199.792 42.7631 199 42.8285 197.919L46.7818 132.56C46.8525 131.39 46.4641 130.239 45.6992 129.351L2.14025 78.7925C1.41107 77.9462 1.82979 76.6283 2.91374 76.358L69.6788 59.7105C70.7558 59.442 71.6956 58.7849 72.3175 57.8654L109.758 2.51411C110.352 1.63466 111.648 1.63466 112.242 2.51411Z" fill="#A98221" stroke="black" stroke-width="3"/>
</svg>
